<svg xmlns="http://www.w3.org/2000/svg" xmlns:xlink="http://www.w3.org/1999/xlink"><style type="text/css">	<![CDATA[		path {			stroke: #222222;			fill: #444444;		}	]]></style><g><path d="M44.3725 43.0893 L83.9107 94.1125 L83.9107 110.369 L9.82738 110.369 L9.82738 43.0893 Z" style = "fill: hsl(269,50%, 50%)"/><path d="M163.286 178.405 L163.286 86.1786 L204.107 86.1786 L204.107 178.405 Z" style = "fill: hsl(258,50%, 50%)"/><path d="M149.229 178.405 L130.024 153.62 L130.024 86.1786 L163.286 86.1786 L163.286 178.405 Z" style = "fill: hsl(4,50%, 50%)"/><path d="M130.024 86.1786 L130.024 8.31548 L163.286 8.31548 L163.286 86.1786 Z" style = "fill: hsl(295,50%, 50%)"/><path d="M96.5081 110.369 L130.024 153.62 L130.024 178.405 L83.9107 178.405 L83.9107 110.369 Z" style = "fill: hsl(157,50%, 50%)"/><path d="M83.9107 94.1125 L44.3725 43.0893 L112.637 43.0893 L112.637 86.1786 L83.9107 86.1786 L83.9107 86.1786 L83.9107 86.1786 L83.9107 86.1786 L83.9107 86.1786 Z" style = "fill: hsl(211,50%, 50%)"/><path d="M149.229 178.405 L163.286 196.544 L163.286 222.25 L130.024 222.25 L130.024 178.405 Z" style = "fill: hsl(258,50%, 50%)"/><path d="M130.024 153.62 L96.5081 110.369 L112.637 110.369 L112.637 110.369 L112.637 110.369 L112.637 110.369 L112.637 110.369 L112.637 86.1786 L130.024 86.1786 Z" style = "fill: hsl(295,50%, 50%)"/><path d="M96.5081 110.369 L83.9107 94.1125 L83.9107 86.1786 L112.637 86.1786 L112.637 110.369 Z" style = "fill: hsl(171,50%, 50%)"/><path d="M130.024 153.62 L149.229 178.405 L130.024 178.405 Z" style = "fill: hsl(127,50%, 50%)"/><path d="M163.286 196.544 L149.229 178.405 L163.286 178.405 Z" style = "fill: hsl(41,50%, 50%)"/><path d="M83.9107 94.1125 L96.5081 110.369 L83.9107 110.369 Z" style = "fill: hsl(29,50%, 50%)"/></g></svg>